<svg width="25" height="25" viewBox="0 0 25 25" fill="none" xmlns="http://www.w3.org/2000/svg">
<path fill-rule="evenodd" clip-rule="evenodd" d="M6.25 0H18.7302C22.1825 0 25 2.81746 25 6.26984V18.7302C25 22.1825 22.1825 25 18.7302 25H6.25C2.81746 25 0 22.1825 0 18.75V6.26984C0 2.81746 2.81746 0 6.25 0ZM13.4921 12.5H15.8532L16.131 9.32541H13.6905V8.13493C13.6905 7.51985 14.0675 7.34128 14.3452 7.34128H16.0714V4.70239H13.631C10.9524 4.70239 10.3175 6.70636 10.3175 7.9762V9.32541H8.92857V12.5H10.5159V20.2381H13.4921V12.5Z" fill="white"/>
</svg>
