<svg width="25" height="25" viewBox="0 0 25 25" fill="none" xmlns="http://www.w3.org/2000/svg">
<path d="M14.6931 10.8812C14.198 10.1881 13.3861 9.73267 12.4753 9.73267C11.5644 9.73267 10.7525 10.1881 10.2574 10.8812C9.9406 11.3366 9.74258 11.8911 9.74258 12.4851C9.74258 13.9901 10.9703 15.2178 12.4753 15.2178C13.9802 15.2178 15.2079 13.9901 15.2079 12.4851C15.2079 11.8911 15.0099 11.3366 14.6931 10.8812Z" fill="white"/>
<path d="M16.4158 10.901C16.6139 11.297 16.7327 11.9307 16.7327 12.4852C16.7327 14.8218 14.8317 16.7426 12.4752 16.7426C10.1188 16.7426 8.21782 14.8416 8.21782 12.4852C8.21782 11.9109 8.33663 11.297 8.53465 10.901H6.13861V17.2574C6.13861 18.0891 6.87128 18.8218 7.70297 18.8218H17.2475C18.0792 18.8218 18.8119 18.0891 18.8119 17.2574V10.901H16.4158Z" fill="white"/>
<path d="M18.099 6.50491H15.802V9.13857H18.4158V6.84154V6.48511L18.099 6.50491Z" fill="white"/>
<path fill-rule="evenodd" clip-rule="evenodd" d="M6.25743 0.0098877H18.6931C22.1386 0.0098877 24.9505 2.82177 24.9703 6.26731V18.703C24.9703 22.1485 22.1584 24.9604 18.7129 24.9604H6.25743C2.81188 24.9604 0 22.1485 0 18.7228V6.26731C0 2.82177 2.81188 0.0098877 6.25743 0.0098877ZM20.198 17.2574V10.8811V7.71282C20.198 6.04946 18.9109 4.76233 17.2475 4.76233H7.70297C6.0396 4.76233 4.75248 6.04946 4.75248 7.71282V10.8811V17.2574C4.75248 18.9207 6.0396 20.2079 7.70297 20.2079H17.2475C18.9109 20.2079 20.198 18.9207 20.198 17.2574Z" fill="white"/>
</svg>
