<svg width="25" height="25" viewBox="0 0 25 25" fill="none" xmlns="http://www.w3.org/2000/svg">
<path fill-rule="evenodd" clip-rule="evenodd" d="M18.7302 0H6.25C2.81746 0 0 2.81746 0 6.26984V18.75C0 22.1825 2.81746 25 6.25 25H18.7302C22.1825 25 25 22.1825 25 18.7302V6.26984C25 2.81746 22.1825 0 18.7302 0ZM12.5185 4.50063C14.7326 4.50621 16.5103 6.31563 16.4993 8.55228C16.4875 10.7371 14.6809 12.508 12.4703 12.5006C10.2816 12.4931 8.48701 10.681 8.49942 8.49151C8.51246 6.27801 10.3083 4.49401 12.5185 4.50063ZM15.4124 15.2847C16.1014 15.0257 16.7216 14.6557 17.2368 14.1434C17.573 13.8096 17.5767 13.3898 17.303 12.9605C17.0639 12.5837 16.6497 12.4259 16.2044 12.5365C15.9753 12.5926 15.7778 12.7055 15.5934 12.8419C13.7291 14.0551 11.1777 14.0207 9.32061 12.7858C9.22959 12.7249 9.13465 12.6678 9.0347 12.6225C8.5197 12.3875 8.02365 12.4975 7.7288 12.9068C7.38365 13.3854 7.42742 13.8492 7.86338 14.2547C7.95365 14.3383 8.0532 14.4129 8.15242 14.4872C8.17765 14.5061 8.20287 14.525 8.2279 14.544C9.22415 15.2984 10.3883 15.6057 11.6794 15.7361C11.6455 15.7712 11.6162 15.8022 11.5895 15.8304C11.5442 15.8783 11.5064 15.9182 11.4668 15.9564C11.2849 16.1329 11.1029 16.3095 10.921 16.486C10.1562 17.2282 9.39135 17.9704 8.62509 18.7111C8.42889 18.9008 8.28822 19.1119 8.27429 19.3884C8.25403 19.7979 8.51578 20.2048 8.92778 20.398C9.31604 20.5799 9.71345 20.5228 10.0477 20.2037C10.7918 19.4938 11.5311 18.7796 12.259 18.0542C12.4415 17.8724 12.5408 17.8334 12.747 18.0424C13.2213 18.5225 13.7085 18.9911 14.1958 19.4598C14.4367 19.6915 14.6776 19.9232 14.917 20.1563C15.1056 20.3399 15.3181 20.4712 15.5907 20.4897C16.0215 20.5184 16.4603 20.2522 16.6565 19.8465C16.8361 19.4759 16.7673 19.0807 16.442 18.7623C15.8303 18.1638 15.2158 17.568 14.6012 16.9721C14.2554 16.6369 13.9096 16.3016 13.5643 15.9658C13.5124 15.9148 13.4702 15.8702 13.403 15.799C13.3845 15.7794 13.3641 15.7579 13.3411 15.7336C14.0475 15.6518 14.7611 15.5284 15.4124 15.2847Z" fill="white"/>
<path d="M12.5122 10.5006C13.6206 10.497 14.5034 9.6073 14.4993 8.49669C14.4949 7.38609 13.6106 6.50146 12.5018 6.50061C11.3837 6.49956 10.4908 7.40003 10.4994 8.52077C10.5077 9.62715 11.4004 10.5052 12.5122 10.5006Z" fill="white"/>
</svg>
