<svg width="25" height="25" viewBox="0 0 25 25" fill="none" xmlns="http://www.w3.org/2000/svg">
<path fill-rule="evenodd" clip-rule="evenodd" d="M6.25 0H18.7302C22.1825 0 25 2.81746 25 6.26984V18.7302C25 22.1825 22.1825 25 18.7302 25H6.25C2.81746 25 0 22.1825 0 18.75V6.26984C0 2.81746 2.81746 0 6.25 0ZM17.4473 12.4241C17.2742 12.7057 17.2048 12.8459 17.4473 13.1609C17.4655 13.1867 17.5574 13.2815 17.6962 13.4249C18.2831 14.0306 19.7096 15.5029 19.9618 16.2967C20.098 16.7634 19.8611 17 19.3936 17H17.7536C17.3159 17 17.0952 16.7522 16.6175 16.216C16.4144 15.988 16.1648 15.7078 15.8322 15.3723C14.8572 14.4241 14.4397 14.3006 14.1972 14.3006C13.7529 14.3006 13.754 14.4286 13.7644 15.618C13.7663 15.829 13.7684 16.0734 13.7684 16.3565C13.7684 16.7634 13.6409 17 12.5965 17C10.859 17 8.94889 15.9348 7.59259 13.9689C5.55752 11.0889 5 8.909 5 8.47057C5 8.22243 5.09438 8.00064 5.56252 8.00064H7.2032C7.62384 8.00064 7.78197 8.18579 7.94385 8.64414C8.74575 11.0066 10.0989 13.0709 10.6564 13.0709C10.8658 13.0709 10.9602 12.9725 10.9602 12.4376V9.99671C10.9223 9.30124 10.6822 9.00057 10.5043 8.7779C10.3944 8.64037 10.3083 8.53259 10.3083 8.37993C10.3083 8.19671 10.4639 8 10.7258 8H13.3047C13.6503 8 13.7672 8.18836 13.7672 8.61007V11.8919C13.7672 12.2435 13.9266 12.3669 14.0291 12.3669C14.2372 12.3669 14.4135 12.2435 14.7947 11.8584C15.976 10.5258 16.811 8.46993 16.811 8.46993C16.9142 8.22179 17.1067 8 17.5242 8H19.1642C19.6599 8 19.7624 8.25843 19.6599 8.61007L19.6586 8.61071C19.4524 9.57564 17.4504 12.4209 17.4473 12.4241Z" fill="white"/>
</svg>
