<svg width="25" height="25" viewBox="0 0 25 25" fill="none" xmlns="http://www.w3.org/2000/svg">
<path d="M10.8929 10.0397V14.6032L15.0992 12.3413L10.8929 10.0397Z" fill="white"/>
<path fill-rule="evenodd" clip-rule="evenodd" d="M6.25 0H18.7302C22.1825 0 25 2.81746 25 6.26984V18.7302C25 22.1825 22.1825 25 18.7302 25H6.25C2.81746 25 0 22.1825 0 18.75V6.26984C0 2.81746 2.81746 0 6.25 0ZM20.119 15.7539C20.119 15.7539 20.2381 14.4245 20.2381 13.115V11.8849C20.2381 10.5753 20.119 9.24597 20.119 9.24597C20.119 9.24597 20 8.11502 19.5238 7.61899C18.983 7.04214 18.3767 6.973 18.0471 6.93542C18.0139 6.93164 17.9836 6.92817 17.9563 6.92454C15.7738 6.76581 12.5 6.74597 12.5 6.74597C12.5 6.74597 9.22619 6.76581 7.02381 6.92454C6.99794 6.92799 6.96938 6.93129 6.93839 6.93487C6.61283 6.97247 6.01969 7.04097 5.47619 7.63883C5.01984 8.13486 4.88095 9.24597 4.88095 9.24597C4.88095 9.24597 4.7619 10.5753 4.7619 11.8849V13.115C4.7619 14.4245 4.88095 15.7539 4.88095 15.7539C4.88095 15.7539 5 16.865 5.47619 17.361C5.97691 17.9118 6.61805 17.9853 7.00981 18.0301C7.08376 18.0386 7.14882 18.046 7.20238 18.0555C8.45238 18.1745 12.5198 18.2341 12.5198 18.2341C12.5198 18.2341 15.7937 18.2142 17.9762 18.0555C18.0074 18.0513 18.0426 18.0476 18.0812 18.0435C18.4106 18.0086 18.9911 17.9471 19.5238 17.361C19.9802 16.865 20.119 15.7539 20.119 15.7539Z" fill="white"/>
</svg>
