<svg width="12" height="12" viewBox="0 0 12 12" fill="none" xmlns="http://www.w3.org/2000/svg">
<path fill-rule="evenodd" clip-rule="evenodd" d="M6.39216 0.90786C6.05061 0.67264 5.59932 0.672641 5.25778 0.907861L0.831562 3.95614C0.0231066 4.51291 0.417123 5.77973 1.39875 5.77973H1.42761C1.38874 5.88648 1.36753 6.00172 1.36753 6.12192V10.7C1.36753 11.2523 1.81525 11.7 2.36753 11.7H3.55142C4.1037 11.7 4.55142 11.2523 4.55142 10.7V9.72659C4.55142 9.72659 4.55142 7.09535 5.82497 7.09535C7.09852 7.09535 7.09852 9.72659 7.09852 9.72659L7.09853 10.7C7.09853 11.2523 7.54624 11.7 8.09853 11.7H9.28241C9.83469 11.7 10.2824 11.2523 10.2824 10.7V6.12192C10.2824 6.00172 10.2612 5.88648 10.2223 5.77973H10.2512C11.2328 5.77973 11.6268 4.51291 10.8184 3.95614L6.39216 0.90786Z" fill="white"/>
</svg>
