<svg width="20" height="20" viewBox="0 0 20 20" fill="none" xmlns="http://www.w3.org/2000/svg">
<path d="M10.0769 18L9.68848 18.5212L10.0769 18.8107L10.4654 18.5212L10.0769 18ZM10.0769 4.71251L9.55538 5.10044L10.0769 5.80163L10.5985 5.10044L10.0769 4.71251ZM10.0769 18C10.4654 17.4788 10.4654 17.4789 10.4655 17.4789C10.4655 17.4789 10.4655 17.4789 10.4654 17.4789C10.4653 17.4788 10.4651 17.4786 10.4647 17.4784C10.464 17.4778 10.4628 17.4769 10.4612 17.4757C10.4578 17.4732 10.4526 17.4693 10.4456 17.4639C10.4314 17.4533 10.4099 17.4369 10.3815 17.4152C10.3248 17.3717 10.2406 17.3066 10.1328 17.2214C9.91724 17.0511 9.60778 16.8011 9.23577 16.4851C8.4908 15.8521 7.4997 14.9582 6.51088 13.9118C5.51993 12.8632 4.54487 11.6758 3.82089 10.4568C3.09257 9.23041 2.65 8.02481 2.65 6.92658H1.35C1.35 8.35502 1.91704 9.79693 2.70315 11.1206C3.49359 12.4516 4.53776 13.7167 5.56604 14.8047C6.59646 15.8951 7.62459 16.822 8.39404 17.4758C8.77924 17.803 9.10079 18.0628 9.32692 18.2415C9.44002 18.3308 9.52933 18.4 9.59089 18.4471C9.62167 18.4707 9.64552 18.4888 9.66195 18.5012C9.67017 18.5074 9.67653 18.5122 9.68097 18.5155C9.68319 18.5172 9.68493 18.5185 9.68618 18.5194C9.68681 18.5199 9.68732 18.5203 9.6877 18.5206C9.68789 18.5207 9.68809 18.5209 9.68818 18.5209C9.68834 18.5211 9.68848 18.5212 10.0769 18ZM10.0769 18C10.4654 18.5212 10.4655 18.5211 10.4657 18.5209C10.4658 18.5209 10.466 18.5207 10.4661 18.5206C10.4665 18.5203 10.467 18.5199 10.4677 18.5194C10.4689 18.5185 10.4707 18.5172 10.4729 18.5155C10.4773 18.5122 10.4837 18.5074 10.4919 18.5012C10.5083 18.4888 10.5322 18.4707 10.563 18.4471C10.6245 18.4 10.7138 18.3308 10.8269 18.2415C11.0531 18.0628 11.3746 17.803 11.7598 17.4758C12.5293 16.822 13.5574 15.8951 14.5878 14.8047C15.6161 13.7167 16.6603 12.4516 17.4507 11.1206C18.2368 9.79693 18.8038 8.35502 18.8038 6.92658H17.5038C17.5038 8.02481 17.0613 9.23041 16.333 10.4568C15.609 11.6758 14.6339 12.8632 13.643 13.9118C12.6541 14.9582 11.6631 15.8521 10.9181 16.4851C10.5461 16.8011 10.2366 17.0511 10.021 17.2214C9.91327 17.3066 9.82906 17.3717 9.7723 17.4152C9.74393 17.4369 9.72243 17.4533 9.70829 17.4639C9.70122 17.4693 9.696 17.4732 9.69267 17.4757C9.69101 17.4769 9.68983 17.4778 9.68913 17.4784C9.68877 17.4786 9.68854 17.4788 9.68844 17.4789C9.68838 17.4789 9.68839 17.4789 9.68837 17.4789C9.68841 17.4789 9.68848 17.4788 10.0769 18ZM18.8038 6.92658C18.8038 5.51907 18.3591 4.42862 17.6018 3.66033C16.8541 2.90178 15.859 2.51503 14.852 2.39357C13.8453 2.27214 12.7896 2.40996 11.8626 2.7389C10.9422 3.06554 10.0936 3.60097 9.55538 4.32458L10.5985 5.10044C10.9386 4.64318 11.5388 4.23327 12.2974 3.96405C13.0496 3.69713 13.9034 3.58857 14.6963 3.68421C15.4889 3.77982 16.1837 4.07358 16.6759 4.57294C17.1586 5.06256 17.5038 5.80742 17.5038 6.92658H18.8038ZM2.65 6.92658C2.65 5.80742 2.99527 5.06256 3.4779 4.57294C3.97013 4.07358 4.66493 3.77982 5.45755 3.68421C6.25049 3.58857 7.10428 3.69713 7.85643 3.96405C8.61508 4.23327 9.21527 4.64318 9.55538 5.10044L10.5985 4.32458C10.0603 3.60097 9.21166 3.06554 8.2912 2.7389C7.36424 2.40996 6.30859 2.27214 5.30188 2.39357C4.29485 2.51503 3.29979 2.90178 2.55208 3.66033C1.79476 4.42862 1.35 5.51907 1.35 6.92658H2.65Z" fill="#202124"/>
</svg>
